<?xml version="1.0" encoding="UTF-8" standalone="no"?>
<!DOCTYPE svg PUBLIC "-//W3C//DTD SVG 1.1//EN" "http://www.w3.org/Graphics/SVG/1.1/DTD/svg11.dtd">
<svg width="100%" height="100%" viewBox="0 0 60 60" version="1.1" xmlns="http://www.w3.org/2000/svg" xmlns:xlink="http://www.w3.org/1999/xlink" xml:space="preserve" xmlns:serif="http://www.serif.com/" style="fill-rule:evenodd;clip-rule:evenodd;stroke-linejoin:round;stroke-miterlimit:1.41421;">
    <g transform="matrix(1.07633,0.288401,-0.280323,1.04618,3.9414,-12.6806)">
        <g transform="matrix(1.02664,0,0,1.02664,-4.2521,-3.54527)">
            <circle cx="33.363" cy="32.675" r="23.377" style="fill:none;stroke:rgb(129,129,129);stroke-width:1.33px;"/>
        </g>
        <g transform="matrix(1,0,0,1,-0.154822,0)">
            <path d="M6.081,30C6.081,30 26.72,36.782 54.229,30" style="fill:none;stroke:rgb(127,127,127);stroke-width:1.37px;stroke-miterlimit:1.5;"/>
        </g>
        <g transform="matrix(1,0,0,1,0,-11.5)">
            <path d="M9.186,30C9.186,30 28.211,35.175 50.98,30" style="fill:none;stroke:rgb(127,127,127);stroke-width:1.37px;stroke-miterlimit:1.5;"/>
        </g>
        <g transform="matrix(1,0,0,1,0,11.5)">
            <path d="M8.887,30C8.887,30 31.037,37.607 50.764,30" style="fill:none;stroke:rgb(127,127,127);stroke-width:1.37px;stroke-miterlimit:1.5;"/>
        </g>
        <g transform="matrix(0.866846,-0.238964,0.232271,0.891828,-0.471256,12.2508)">
            <path d="M19.193,51.847C8.428,19.917 34.421,2.777 34.421,2.777C20.082,1.979 -5.267,21.191 17.728,51.371" style="fill:none;stroke:rgb(127,127,127);stroke-width:1.5px;stroke-linejoin:miter;stroke-miterlimit:1.5;"/>
        </g>
        <g transform="matrix(0.866846,-0.238964,0.232271,0.891828,-0.471256,12.2508)">
            <path d="M34.388,2.424C31.287,22.367 26.479,39.222 19.405,52.22" style="fill:none;stroke:rgb(127,127,127);stroke-width:1.5px;stroke-linejoin:miter;stroke-miterlimit:1.5;"/>
        </g>
        <g transform="matrix(0.866846,-0.238964,0.232271,0.891828,-0.471256,12.2508)">
            <path d="M34.558,2.55C34.558,2.55 53.204,33.896 20.069,52.162" style="fill:none;stroke:rgb(127,127,127);stroke-width:1.5px;stroke-linejoin:miter;stroke-miterlimit:1.5;"/>
        </g>
        <g transform="matrix(0.866846,-0.238964,0.232271,0.891828,-0.471256,12.2508)">
            <path d="M33.654,1.984C47.925,9.421 59.843,46.995 19.108,51.818" style="fill:none;stroke:rgb(127,127,127);stroke-width:1.5px;stroke-linejoin:miter;stroke-miterlimit:1.5;"/>
        </g>
    </g>
</svg>
