<?xml version="1.0" encoding="UTF-8" standalone="no"?>
<!DOCTYPE svg PUBLIC "-//W3C//DTD SVG 1.1//EN" "http://www.w3.org/Graphics/SVG/1.1/DTD/svg11.dtd">
<svg width="100%" height="100%" viewBox="0 0 60 60" version="1.1" xmlns="http://www.w3.org/2000/svg" xmlns:xlink="http://www.w3.org/1999/xlink" xml:space="preserve" xmlns:serif="http://www.serif.com/" style="fill-rule:evenodd;clip-rule:evenodd;stroke-linejoin:round;stroke-miterlimit:1.41421;">
    <g transform="matrix(1.07633,0.288401,-0.280323,1.04618,3.9414,-12.6806)">
        <g transform="matrix(1.02664,0,0,1.02664,-4.2521,-3.54527)">
            <circle cx="33.363" cy="32.675" r="23.377" style="fill:none;stroke:rgb(129,129,129);stroke-width:1.33px;"/>
        </g>
        <g transform="matrix(1,0,0,1,-0.154822,0)">
            <path d="M6.081,30C6.081,30 26.72,36.782 54.229,30" style="fill:none;stroke:rgb(127,127,127);stroke-width:1.37px;stroke-miterlimit:1.5;"/>
        </g>
        <g transform="matrix(1,0,0,1,0,-11.5)">
            <path d="M9.186,30C9.186,30 28.211,35.175 50.98,30" style="fill:none;stroke:rgb(127,127,127);stroke-width:1.37px;stroke-miterlimit:1.5;"/>
        </g>
        <g transform="matrix(1,0,0,1,0,11.5)">
            <path d="M8.887,30C8.887,30 31.037,37.607 50.764,30" style="fill:none;stroke:rgb(127,127,127);stroke-width:1.37px;stroke-miterlimit:1.5;"/>
        </g>
        <g transform="matrix(0.866846,-0.238964,0.232271,0.891828,-0.471256,12.2508)">
            <path d="M19.193,51.847C8.428,19.917 34.421,2.777 34.421,2.777C20.082,1.979 -5.267,21.191 17.728,51.371" style="fill:none;stroke:rgb(127,127,127);stroke-width:1.5px;stroke-linejoin:miter;stroke-miterlimit:1.5;"/>
        </g>
        <g transform="matrix(0.866846,-0.238964,0.232271,0.891828,-0.471256,12.2508)">
            <path d="M34.388,2.424C31.287,22.367 26.479,39.222 19.405,52.22" style="fill:none;stroke:rgb(127,127,127);stroke-width:1.5px;stroke-linejoin:miter;stroke-miterlimit:1.5;"/>
        </g>
        <g transform="matrix(0.866846,-0.238964,0.232271,0.891828,-0.471256,12.2508)">
            <path d="M34.558,2.55C34.558,2.55 53.204,33.896 20.069,52.162" style="fill:none;stroke:rgb(127,127,127);stroke-width:1.5px;stroke-linejoin:miter;stroke-miterlimit:1.5;"/>
        </g>
        <g transform="matrix(0.866846,-0.238964,0.232271,0.891828,-0.471256,12.2508)">
            <path d="M33.654,1.984C47.925,9.421 59.843,46.995 19.108,51.818" style="fill:none;stroke:rgb(127,127,127);stroke-width:1.5px;stroke-linejoin:miter;stroke-miterlimit:1.5;"/>
        </g>
        <g transform="matrix(0.866846,-0.238964,0.232271,0.891828,-0.471256,12.2508)">
            <path d="M34.831,1.435C49.518,5.37 58.336,20.155 54.511,34.43C50.686,48.706 35.657,57.101 20.969,53.165C6.282,49.23 -2.536,34.445 1.289,20.17C5.114,5.894 20.143,-2.501 34.831,1.435ZM44.461,15.757C47.949,20.482 49.342,26.608 47.733,32.614C44.882,43.254 33.681,49.51 22.735,46.577C20.44,45.962 18.338,44.992 16.474,43.744L44.461,15.757ZM39.326,10.856L11.339,38.843C7.851,34.118 6.458,27.992 8.067,21.986C10.918,11.346 22.119,5.09 33.065,8.023C35.36,8.638 37.462,9.608 39.326,10.856Z" style="fill:rgb(255,0,0);fill-opacity:0.6;"/>
        </g>
    </g>
</svg>
